PathFileType	3	(X/Y/Z)	D:\Jess\PFP\Labelled\PA12\20250811\SRRun01.trc
DataRate	CameraRate	NumFrames	NumMarkers	Units	OrigDataRate	OrigDataStartFrame	OrigNumFrames
250.0	250.0	4	37	mm	250.0	37188	2501
Frame#	Time	C7			T10			CLAV			LSHO			RSHO			LASIS			RASIS			LPSIS			RPSIS			LILCR			RILCR			LGTR			LTHI			LLTHI			LLEP			LMEP			LPSH			LLSH			LDSH			LLMAL			LMMAL			LTOE			L5TH			LHEE			RGTR			RTHI			RLTHI			RLEP			RMEP			RPSH			RLSH			RDSH			RLMAL			RMMAL			RTOE			R5TH			RHEE			
		X1	Y1	Z1	X2	Y2	Z2	X3	Y3	Z3	X4	Y4	Z4	X5	Y5	Z5	X6	Y6	Z6	X7	Y7	Z7	X8	Y8	Z8	X9	Y9	Z9	X10	Y10	Z10	X11	Y11	Z11	X12	Y12	Z12	X13	Y13	Z13	X14	Y14	Z14	X15	Y15	Z15	X16	Y16	Z16	X17	Y17	Z17	X18	Y18	Z18	X19	Y19	Z19	X20	Y20	Z20	X21	Y21	Z21	X22	Y22	Z22	X23	Y23	Z23	X24	Y24	Z24	X25	Y25	Z25	X26	Y26	Z26	X27	Y27	Z27	X28	Y28	Z28	X29	Y29	Z29	X30	Y30	Z30	X31	Y31	Z31	X32	Y32	Z32	X33	Y33	Z33	X34	Y34	Z34	X35	Y35	Z35	X36	Y36	Z36	X37	Y37	Z37	

2189	148.748	842.5766534048589	1517.214500200962	-304.9261941727067	748.8199593853833	1237.248125906718	-343.071669132584	991.7882503164378	1377.124655363022	-286.4495349124397	923.8643027336782	1512.471448239	-455.558256480112	870.2930392467341	1473.719582004536	-144.1223106225022	960.3368780636322	953.4559455445514	-430.0442997800482	952.1931646540803	980.4311731393906	-197.0782786463047	747.2583855400958	1019.817130068345	-351.0815244204554	741.1656584581202	1024.902714527887	-309.1465231189723	897.9333769438127	1041.742206580763	-503.1240557185334	824.8537346106427	1062.087318799668	-134.5495448427212	906.2526231522719	838.9135043698146	-507.8283504940742	1016.785321571474	693.9285053710021	-423.8315595012517	907.1875210306164	592.1724634161129	-500.2373123619548	885.4600954097001	484.9338251386029	-484.4882498586838	nan	nan	nan	853.5436272603655	402.4105033504154	-432.8403894213177	700.753238401912	454.6996783762486	-478.6289580580475	613.8537993435887	366.1192885042951	-413.6376028335447	493.1436379829794	401.6481105929228	-435.9661497242681	nan	nan	nan	462.9572741800869	238.3870944348303	-451.1200668633142	427.3041132952581	279.5529334716442	-479.6997869069124	461.7136065459102	463.1755168973862	-373.5242019824886	860.6549572421206	878.6595491778584	-113.6654742783151	1061.206816369311	748.0812248022274	-219.3205663848842	967.0501374319882	626.2880494620787	-163.4779546060859	997.6299156104748	505.5521230601649	-194.6386444259633	nan	nan	nan	1028.549913929343	415.4973088527342	-275.7351379263133	932.7197277780224	317.634446853966	-210.8097040485991	943.5950931303142	195.5719497507713	-302.0284282968731	868.7118390748666	108.3735131700978	-271.2131559639478	nan	nan	nan	1012.497299111726	66.25906308371857	-273.7865473949981	972.6289725791067	44.74499851699941	-228.1168822164468	782.9144723980719	82.066713673265	-331.8982035877621	
2190	148.752	842.3647759885249	1516.016677527968	-304.8036707065362	747.8678207369665	1236.370313660021	-342.998716630522	991.7444316772355	1375.030554447565	-287.0390399384019	923.2890094063426	1511.039869986513	-455.6786345729297	870.6762507499765	1471.641535998236	-143.6830922798543	958.7089345635718	949.8617156517469	-429.5947614121645	950.1649860350519	977.9329621003216	-196.5022204047529	746.2256348508384	1018.925843847276	-351.7142497054374	739.9773823675625	1024.096212353421	-309.8310643551466	896.9111232268463	1039.065581509426	-503.0118740691848	822.6735528878776	1060.892947635783	-134.7237107002357	906.910424531741	837.3871982965994	-507.265225643795	1019.903907610248	694.8525587161554	-422.1665744443229	913.4924773001844	591.6023644569079	-500.8772229488151	894.1465298736298	483.8971425937786	-485.0159215985977	nan	nan	nan	862.249474341718	401.772570838985	-432.9363131976496	709.6968745371213	453.4771778439279	-480.1988230166413	622.5159606287446	365.3125951687568	-414.8398460458099	501.7330013380993	400.3791306542469	-438.0949008668728	nan	nan	nan	473.1546986159757	236.8541581116708	-452.8133945605185	437.4873934954504	277.5575001057988	-482.0296905095228	468.9906220345101	461.9855676158567	-376.2641421057611	858.7199344734174	877.8695286204494	-113.8513305561428	1058.970870539101	746.7198047091856	-219.8598875614452	964.7432733581837	624.9705177560286	-163.2116493337932	993.7649064965135	503.798416577344	-194.5373886864637	nan	nan	nan	1023.684954225661	413.3232087331353	-274.9713904128823	925.8249993032714	316.9315846306395	-210.8049138774589	934.9324823957805	194.7846376980382	-301.9989719962176	858.6363174709802	108.6619443423595	-271.1670946232812	nan	nan	nan	1001.964649821527	66.04971344465906	-273.6016359204471	961.9681035590422	44.69568756108405	-228.034286998996	772.5032212377791	82.68018135502432	-331.9158848269822	
2191	148.756	842.0896224727709	1514.969692895037	-304.7605592067704	746.9262731697791	1235.619349417561	-342.8504976396893	991.6422847252807	1373.203956413768	-287.6436745495388	922.6780010649923	1509.811647286491	-455.784216866188	871.121099809686	1469.771044450477	-143.3027460731361	957.0612880445801	946.6330730380279	-429.2844885981957	948.2093286474899	975.5500232118287	-196.0224244290652	745.1988249029085	1018.221591092393	-352.1750810055229	738.8478347202864	1023.423556359086	-310.3429985302504	895.7222258733384	1036.864541291455	-502.9156008412295	820.6072849266116	1059.806357985514	-134.8987737182451	907.3984718728464	836.2609007276419	-506.7124947284395	1022.946819442777	696.0418000653397	-420.3703791638832	919.9020245405766	591.3615413383723	-501.483866110538	902.8847511956769	483.1410451094707	-485.4429577491492	nan	nan	nan	871.0325390765021	401.3734297530513	-432.8996984747042	718.7023003201485	452.2864083841476	-481.6711966603094	631.3137578763657	364.3851256956806	-415.9854435023234	510.4128103632032	398.7796662038363	-440.202722908866	nan	nan	nan	483.6712932268753	234.9686181261218	-454.4278121791962	447.9356845981772	275.139030186933	-484.2862623608233	476.2696836425176	460.4209670856297	-379.0115090889778	856.8351691863012	877.0742600561665	-114.0305500462171	1056.586187082152	745.0017358868125	-220.2746724467109	961.9526592250542	623.6001281718078	-162.9823478578109	989.1874343168922	501.8792371166424	-194.4021827597249	nan	nan	nan	1018.368702837097	411.0028663303169	-274.1345378563691	918.5789591589294	316.0280433275112	-210.8115860828265	926.0716255805962	193.9522156033152	-301.9336988715543	848.4665413635684	108.8774644247915	-271.0998533610662	nan	nan	nan	991.3677409183261	65.80422663500495	-273.4143005886824	951.2487440710204	44.5963548802202	-227.9443583421277	762.023021155069	83.21896300745082	-331.9371065965596	
2192	148.76	841.7445407942696	1514.073418966227	-304.7773093675085	746.0029214916779	1234.987876159812	-342.6327902665103	991.481957328473	1371.649131538276	-288.2639798360422	922.0152859712623	1508.795041811959	-455.8772331207389	871.6275777786624	1468.113608818266	-142.9751225779913	955.4160344346592	943.8086330658994	-429.1148099365216	946.3488921142992	973.3192939475259	-195.641501528917	744.1762148049089	1017.686609122691	-352.4596727766003	737.7762311335171	1022.874904994547	-310.6768513969852	894.3799934504036	1035.128235042264	-502.8469757447882	818.6729877782495	1058.823757930874	-135.0627777258772	907.7212925652948	835.5229575178021	-506.1839334857113	1025.905893528599	697.5018700513086	-418.4889031542974	926.3847210668715	591.4608706169161	-502.0496109555997	911.6398806279888	482.6811647174611	-485.7698289778139	nan	nan	nan	879.8687935562135	401.220951329793	-432.7397868486151	727.740458132359	451.1312308780765	-483.0399868581829	640.2245379005844	363.3373082788644	-417.071523316876	519.1651133811981	396.852361689108	-442.2781463217324	nan	nan	nan	494.4871469773838	232.7432010535494	-455.961125425026	458.6280916709459	272.3120551045114	-486.4585239828583	483.5434382061197	458.4734200796603	-381.7469999601154	855.006134292844	876.2671410435253	-114.1919038442308	1054.043691436675	742.9082055458776	-220.541067508969	958.6664828726526	622.177019677429	-162.8004949404047	983.9390263491799	499.8151407708363	-194.2462265009987	nan	nan	nan	1012.608348407324	408.5641269519581	-273.2797843895017	911.023778115127	314.9397464715936	-210.8394591967929	917.0245854872734	193.0858818180675	-301.8513986462667	838.209778247644	109.0296806180048	-271.0241722651747	nan	nan	nan	980.7126636467922	65.52443288243957	-273.2373943156655	940.4748527225504	44.4598601069391	-227.8529087323196	751.477776746372	83.68733126422578	-331.9683189411771	
